<?xml version="1.0" encoding="UTF-8" standalone="no"?>
<svg
   xmlns:dc="http://purl.org/dc/elements/1.1/"
   xmlns:cc="http://creativecommons.org/ns#"
   xmlns:rdf="http://www.w3.org/1999/02/22-rdf-syntax-ns#"
   xmlns:svg="http://www.w3.org/2000/svg"
   xmlns="http://www.w3.org/2000/svg"
   xmlns:xlink="http://www.w3.org/1999/xlink"
   xmlns:sodipodi="http://sodipodi.sourceforge.net/DTD/sodipodi-0.dtd"
   xmlns:inkscape="http://www.inkscape.org/namespaces/inkscape"
   version="1.0"
   width="262.07001mm"
   height="76.93mm"
   id="svg3087"
   inkscape:version="0.48.2 r9819"
   sodipodi:docname="phelix_logo.svg">
  <title
     id="title3856">Phelix logo</title>
  <metadata
     id="metadata3329">
    <rdf:RDF>
      <cc:Work
         rdf:about="">
        <dc:format>image/svg+xml</dc:format>
        <dc:type
           rdf:resource="http://purl.org/dc/dcmitype/StillImage" />
        <dc:title>Phelix logo</dc:title>
      </cc:Work>
    </rdf:RDF>
  </metadata>
  <sodipodi:namedview
     pagecolor="#ffffff"
     bordercolor="#666666"
     borderopacity="1"
     objecttolerance="10"
     gridtolerance="10"
     guidetolerance="10"
     inkscape:pageopacity="0"
     inkscape:pageshadow="2"
     inkscape:window-width="1680"
     inkscape:window-height="994"
     id="namedview3327"
     showgrid="true"
     inkscape:zoom="1.2384307"
     inkscape:cx="501.60949"
     inkscape:cy="147.54731"
     inkscape:window-x="-4"
     inkscape:window-y="-4"
     inkscape:window-maximized="1"
     inkscape:current-layer="layer1"
     inkscape:snap-global="false">
    <inkscape:grid
       type="xygrid"
       id="grid3331"
       empspacing="5"
       visible="true"
       enabled="true"
       snapvisiblegridlinesonly="true" />
  </sodipodi:namedview>
  <defs
     id="defs3089">
    <linearGradient
       id="linearGradient3858">
      <stop
         style="stop-color:#fff500;stop-opacity:1;"
         offset="0"
         id="stop3860" />
      <stop
         style="stop-color:#e05117;stop-opacity:1;"
         offset="1"
         id="stop3862" />
    </linearGradient>
    <radialGradient
       inkscape:collect="always"
       xlink:href="#linearGradient3858"
       id="radialGradient3870"
       cx="699.26776"
       cy="90.162453"
       fx="699.26776"
       fy="90.162453"
       r="27.5"
       gradientUnits="userSpaceOnUse"
       gradientTransform="matrix(1.334449,0.77044448,-0.77044448,1.334449,-164.40422,-568.90172)" />
  </defs>
  <g
     inkscape:groupmode="layer"
     id="layer1"
     inkscape:label="Original"
     style="opacity:1;display:inline">
    <path
       inkscape:connector-curvature="0"
       id="path3093"
       d="m 699.87005,0 0,191.64614 3.54027,0 0,-191.64614 z"
       style="fill:#da251d;fill-opacity:1;fill-rule:nonzero;stroke:none" />
    <path
       inkscape:connector-curvature="0"
       id="path3095"
       d="m 651.00277,13.693154 98.2569,166.000486 3.07597,-1.74065 L 654.0207,11.952499 z"
       style="fill:#da251d;fill-opacity:1;fill-rule:nonzero;stroke:none" />
    <path
       inkscape:connector-curvature="0"
       id="path3097"
       d="m 615.65814,49.376587 150.95464,85.001993 1.79915,-3.01713 -151.01267,-84.943977 z"
       style="fill:#da251d;fill-opacity:1;fill-rule:nonzero;stroke:none" />
    <path
       inkscape:connector-curvature="0"
       id="path3099"
       d="M 617.39926,145.22867 787.68027,49.376587 785.93916,46.417473 615.65814,142.26955 z"
       style="fill:#da251d;fill-opacity:1;fill-rule:nonzero;stroke:none" />
    <path
       inkscape:connector-curvature="0"
       id="path3101"
       d="M 654.0207,179.69364 752.33564,13.693154 749.25967,11.952499 651.00277,177.95299 z"
       style="fill:#da251d;fill-opacity:1;fill-rule:nonzero;stroke:none" />
    <path
       inkscape:connector-curvature="0"
       id="path3103"
       d="M 686.11525,159.09589 720.70539,33.188493 717.2812,32.260144 682.69106,158.16754 z"
       style="fill:#da251d;fill-opacity:1;fill-rule:nonzero;stroke:none" />
    <path
       inkscape:connector-curvature="0"
       id="path3105"
       d="M 720.70539,158.16754 686.11525,32.260144 682.69106,33.188493 717.2812,159.09589 z"
       style="fill:#da251d;fill-opacity:1;fill-rule:nonzero;stroke:none" />
    <path
       inkscape:connector-curvature="0"
       id="path3107"
       d="m 750.2463,140.5289 -94.60056,-92.138685 -2.4956,2.436918 94.60057,92.138687 z"
       style="fill:#da251d;fill-opacity:1;fill-rule:nonzero;stroke:none" />
    <path
       inkscape:connector-curvature="0"
       id="path3109"
       d="M 766.72886,110.87974 637.59619,77.169048 636.66759,80.476293 765.8583,114.18698 z"
       style="fill:#da251d;fill-opacity:1;fill-rule:nonzero;stroke:none" />
    <path
       inkscape:connector-curvature="0"
       id="path3111"
       d="m 765.8583,77.169048 -129.19071,33.710692 0.9286,3.30724 129.13267,-33.710687 z"
       style="fill:#da251d;fill-opacity:1;fill-rule:nonzero;stroke:none" />
    <path
       inkscape:connector-curvature="0"
       id="path3113"
       d="m 747.75071,48.390215 -94.60057,92.138685 2.4956,2.43692 94.60056,-92.138687 z"
       style="fill:#da251d;fill-opacity:1;fill-rule:nonzero;stroke:none" />
    <path
       inkscape:connector-curvature="0"
       id="path3115"
       d="m 0,97.592737 796.73407,0.116043 0,-3.655376 L 0,93.937361 z"
       style="fill:#da251d;fill-opacity:1;fill-rule:nonzero;stroke:none" />
    <path
       sodipodi:type="arc"
       style="fill:url(#radialGradient3870);fill-opacity:1;stroke:none"
       id="path3848-4"
       sodipodi:cx="712.5"
       sodipodi:cy="100.08661"
       sodipodi:rx="27.5"
       sodipodi:ry="27.5"
       d="m 740,100.08661 a 27.5,27.5 0 1 1 -55,0 27.5,27.5 0 1 1 55,0 z"
       transform="matrix(1.0984197,0,0,1.0984197,-81.408153,-14.322468)" />
    <path
       style="fill:#667bb4;fill-opacity:1;fill-rule:evenodd;stroke:none;display:inline"
       d="m 776.77573,133.8377 0,2.8125 c 4.74678,0.86226 7.58121,3.19823 11.625,6.125 l 38,35.0625 -43.625,38.6875 c -4.83656,4.06616 -8.74,5.62674 -11.5,6.03125 l 0,3.25 61.21875,0 0,-3.1875 c -10.33369,-0.19665 -4.40101,-5.18329 -2.1875,-7.6562 l 18.75,-16.59375 17.6875,16.1875 c 3.13743,2.90329 8.35063,7.77696 -1.15625,8.06245 l 0,3.1875 62.96875,0.0625 0,-3 c -6.41278,-1.77239 -7.9038,-2.84064 -11.84375,-6.15625 l -43.625,-39.40625 38.8125,-34.21875 c 3.528,-3.19358 5.14131,-4.53287 11.4375,-6.15625 l 0,-2.78125 -61,-0.125 0,2.78125 c 7.5265,-0.0451 8.19244,2.11559 2.3125,7.78125 l -14.15625,11.9375 c -5.29014,-4.66656 -9.65577,-8.99828 -15.3125,-14.5625 -3.98599,-4.83928 1.42511,-5.07147 4.8125,-5.21875 l 0,-2.78125 z"
       id="path3223-7"
       inkscape:connector-curvature="0"
       sodipodi:nodetypes="ccccccccccccccccccccccccccccc" />
    <path
       inkscape:connector-curvature="0"
       id="path3117-1"
       d="m 4.8435341,226.08672 c 0.0082,-29.73204 0.025061,-60.88239 0.027757,-86.8259 -0.00756,-4.44794 2.4990527,-6.81284 6.4143669,-6.82133 l 131.396112,0 c 4.54029,0.0266 8.05975,6.30155 8.06717,9.51556 0.0105,4.55384 0,25.41357 0,38.12035 0.004,3.84347 -5.12604,8.42982 -8.06713,8.47117 l -77.827818,0 c -2.512296,0.0213 -4.829275,2.61685 -4.875123,6.84655 0,10.23118 0,20.46237 0,30.69355 -19.412036,-4e-5 -37.182203,5e-5 -55.1353349,5e-5 z m 57.6308949,-78.32948 32.790994,0 c 1.720508,-0.004 3.121735,1.56767 3.13393,3.0751 l 0,17.46457 c -0.0079,1.84992 -1.585492,3.07354 -3.13393,3.07512 l -32.790994,0 c -1.946216,-0.003 -3.145172,-1.75331 -3.134012,-3.07512 l 0,-17.46457 c 0.005,-1.88829 1.921066,-3.03603 3.134012,-3.0751 z"
       style="fill:#667bb4;fill-opacity:1;fill-rule:evenodd;stroke:none;display:inline"
       sodipodi:nodetypes="ccccsccccccccccccccc" />
    <path
       style="fill:#667bb4;fill-opacity:1;fill-rule:evenodd;stroke:none;display:inline"
       d="m 216.086,132.34233 -48.03125,0.125 c -1.46452,0.0188 -3.16632,1.5624 -3.18745,3.40625 l 0,86.875 c 0.0334,1.80259 1.71566,3.36912 3.18745,3.375 l 48.03125,-0.3125 c 1.84285,-0.039 3.13472,-1.89839 3.15625,-3.4062 l 0,-33.78125 29.53125,0 0,32.375 c -0.006,2.51602 2.20975,5.14063 4.25,5.125 l 46.1875,-0.0625 c 2.67689,-0.0238 4.68178,-2.66577 4.68745,-4.59375 l 0,-83.90625 c 0.0414,-2.39989 -1.98303,-5.03229 -4.2187,-5.03125 l -46.21875,-0.125 c -2.41852,0.0213 -4.6704,2.61002 -4.68745,4.5937 l 0,36.375 -29.53125,0 0,-37.53125 c 0.004,-1.54391 -1.39283,-3.4911 -3.15625,-3.5 z"
       id="path3119-1-7"
       inkscape:connector-curvature="0"
       sodipodi:nodetypes="cccccccccccccccccccccc" />
    <path
       style="fill:#667bb4;fill-opacity:1;fill-rule:evenodd;stroke:none;display:inline"
       d="m 326.06983,134.2071 c -2.78998,0.003 -4.79872,2.44445 -4.81245,4.5312 l -0.0625,82.4375 c 0.011,2.57925 2.34432,4.9984 4.4062,5 8.33258,0.009 96.25712,-0.0848 138.75,-0.0625 1.79536,0.008 4.83883,-3.20769 4.84375,-5.125 l 0,-22.09375 -55.21875,0 0,9.03125 c -1.43688,0.75154 -3.11124,1.00994 -4.56245,1.18745 l -26.46875,0 c -2.9557,0.0365 -4.76057,-1.125 -4.81255,-4.3124 -0.0371,-4.73872 -0.0186,-12.02151 -0.0319,-13.92709 -0.0133,-1.90558 0.70569,-3.3499 3.00063,-3.35421 l 41.8125,0 0,-15.3125 c -6.11225,-0.013 -37.38315,-0.0198 -40.15625,-0.012 -2.7731,0.008 -4.60087,-2.54891 -4.62495,-3.73797 l 0,-19 c 0.009,-1.31201 0.89952,-3.10664 4.62495,-3.1249 l 25.59375,-0.125 c 3.06053,-0.0229 4.18346,0.46527 4.3437,3.6562 l 0,9.96875 56.03125,-0.0625 -0.0625,-19.59375 c -0.0193,-3.05209 -2.63572,-5.95126 -8.30042,-5.96385 -5.66469,-0.0126 -128.83732,-0.006 -134.29328,-0.005 -5.45596,9.4e-4 0,-1e-4 0,-1e-4 z"
       id="path3125-4-0"
       inkscape:connector-curvature="0"
       sodipodi:nodetypes="cccccccccccczccczcccccccczzcc" />
    <path
       style="fill:#667bb4;fill-opacity:1;fill-rule:evenodd;stroke:none;display:inline"
       d="m 484.35989,134.53468 0,3.46875 2.28125,0 c 1.28486,0.058 3.18087,1.54862 3.1875,2.53125 l 0,78.84375 c 0.002,1.79694 -1.73458,3.73625 -3.24995,3.75 l -2.21875,0 0,3.25 c 48.87764,0.0933 99.30347,-0.26245 141.65625,-0.34375 4.1345,0.0103 6.16255,-4.2142 6.2812,-7.71875 l 0,-18.90625 -56.46875,0.15625 0,9.0625 c -0.0386,2.29843 -0.94853,4.21637 -3.24995,4.1875 l -25.71875,0.0312 c -1.2614,-0.005 -3.34125,-2.08632 -3.34375,-2.9062 l 0,-68.34375 c 0.021,-2.03325 2.12805,-3.6045 3.4062,-3.65625 l 2.3125,0 0,-3.40625 c -22.22281,-0.0906 -45.40215,0.0213 -64.875,0 z"
       id="path3141-9-4"
       inkscape:connector-curvature="0"
       sodipodi:nodetypes="ccccccccccccccccccccc" />
    <path
       inkscape:connector-curvature="0"
       style="fill:#667bb4;fill-opacity:1;fill-rule:evenodd;stroke:none;display:inline"
       d="m 647.51875,135.37251 -0.0301,13.46875 10.96875,0.0312 c 3.03052,0.004 5.3299,1.62558 5.34375,4.12495 l -0.0625,56.34375 c -0.0486,1.47589 -3.28431,3.69435 -5.28125,3.65625 -3.90154,0.0853 -7.36667,-0.0146 -11.21875,0.0625 l 0,13.28125 c 7.38568,0.0494 102.55499,0.0751 110.21875,0 l 0,-13.34375 -10.5625,0 c -1.93033,0.005 -6.10526,-1.37652 -6.09375,-4.1249 l 0,-55.875 c 0.041,-2.99316 2.45185,-4.11439 6.0937,-4.125 l 10.34375,0 -0.0109,-13.5 c -36.39567,-0.10793 -73.84819,0.15473 -109.709,0 z"
       id="path3157-8-8"
       sodipodi:nodetypes="ccccccccccccccccc" />
    <path
       inkscape:connector-curvature="0"
       id="path3161"
       d="m 698.29043,226.3584 6.67427,0 0,-90.97319 -6.67427,0 0,90.97319 z"
       style="fill:#de4834;fill-opacity:1;fill-rule:evenodd;stroke:none" />
  </g>
</svg>
